<svg width="61" height="61" viewBox="0 0 61 61" fill="none" xmlns="http://www.w3.org/2000/svg">
<path d="M0 0H61V61H0V0Z" fill="white"/>
<mask id="mask0" mask-type="alpha" maskUnits="userSpaceOnUse" x="12" y="5" width="35" height="51">
<path d="M31.55 24.1565L29.004 24.112C28.3026 24.0998 27.741 23.5195 27.7532 22.8168C27.7655 22.1154 28.347 21.5538 29.0485 21.566L34.1404 21.6549L34.1849 19.1089L31.6389 19.0645L31.6611 17.7915L29.1151 17.747L29.0929 19.02C26.9874 18.9833 25.244 20.6668 25.2072 22.7724C25.1705 24.8779 26.854 26.6213 28.9596 26.658L31.5056 26.7025C32.207 26.7147 32.7686 27.2963 32.7563 27.9977C32.7441 28.7004 32.1625 29.2607 31.4611 29.2484L26.3691 29.1596L26.3247 31.7056L28.8707 31.75L28.8485 33.023L31.3945 33.0674L31.4167 31.7944C33.5222 31.8312 35.2656 30.1477 35.3023 28.0421C35.3391 25.9378 33.6555 24.1932 31.55 24.1565ZM29.7455 55.4545C24.0819 47.8548 12.9394 31.955 12.9394 22.4499C12.9394 13.1283 20.4781 5.54546 29.7455 5.54546C39.0129 5.54546 46.5516 13.1283 46.5516 22.4499C46.5516 31.955 35.4092 47.8572 29.7455 55.4545ZM29.7455 10.6382C23.2868 10.6382 18.0322 16.0169 18.0322 22.6282C18.0322 28.8415 25.3108 40.8123 29.7455 47.3061C34.1778 40.8099 41.4589 28.8367 41.4589 22.6282C41.4589 16.0169 36.2043 10.6382 29.7455 10.6382Z" fill="white"/>
</mask>
<g mask="url(#mask0)">
<path d="M31.55 24.1565L29.004 24.112C28.3026 24.0998 27.741 23.5195 27.7532 22.8168C27.7655 22.1154 28.347 21.5538 29.0485 21.566L34.1404 21.6549L34.1849 19.1089L31.6389 19.0645L31.6611 17.7915L29.1151 17.747L29.0929 19.02C26.9874 18.9833 25.244 20.6668 25.2072 22.7724C25.1705 24.8779 26.854 26.6213 28.9596 26.658L31.5056 26.7025C32.207 26.7147 32.7686 27.2963 32.7563 27.9977C32.7441 28.7004 32.1625 29.2607 31.4611 29.2484L26.3691 29.1596L26.3247 31.7056L28.8707 31.75L28.8485 33.023L31.3945 33.0674L31.4167 31.7944C33.5222 31.8312 35.2656 30.1477 35.3023 28.0421C35.3391 25.9378 33.6555 24.1932 31.55 24.1565ZM29.7455 55.4545C24.0819 47.8548 12.9394 31.955 12.9394 22.4499C12.9394 13.1283 20.4781 5.54546 29.7455 5.54546C39.0129 5.54546 46.5516 13.1283 46.5516 22.4499C46.5516 31.955 35.4092 47.8572 29.7455 55.4545ZM29.7455 10.6382C23.2868 10.6382 18.0322 16.0169 18.0322 22.6282C18.0322 28.8415 25.3108 40.8123 29.7455 47.3061C34.1778 40.8099 41.4589 28.8367 41.4589 22.6282C41.4589 16.0169 36.2043 10.6382 29.7455 10.6382Z" fill="#F26100"/>
</g>
</svg>
