<svg width="60" height="60" viewBox="0 0 60 60" fill="none" xmlns="http://www.w3.org/2000/svg">
<rect width="60" height="60" fill="white"/>
<mask id="mask0_3250_1962" style="mask-type:luminance" maskUnits="userSpaceOnUse" x="5" y="5" width="51" height="51">
<rect x="5" y="5" width="51" height="51" fill="white"/>
</mask>
<g mask="url(#mask0_3250_1962)">
<path fill-rule="evenodd" clip-rule="evenodd" d="M5 32.3846C7.06426 28.961 9.05451 25.6602 11.0875 22.2883C13.1196 25.6637 15.0987 28.9511 17.1529 32.3632H13.1892C13.2631 33.0163 13.29 33.5797 13.3943 34.1284C14.4834 39.8525 17.6232 44.0842 22.8222 46.7152C29.8051 50.249 38.316 48.7028 43.6356 42.974C47.2178 39.1162 48.7915 34.5142 48.3304 29.2914C47.6282 21.3388 41.2282 14.6964 33.3214 13.6004C32.5319 13.491 31.7296 13.4766 30.9357 13.394C29.4764 13.2424 28.8091 12.4403 28.9255 11.0057C29.0252 9.77843 29.9806 8.95012 31.2725 9.00233C36.5876 9.21734 41.2682 11.0375 45.2579 14.5641C49.2672 18.1083 51.6996 22.5546 52.4577 27.8204C53.3591 34.0814 51.7943 39.7613 47.8389 44.7192C44.2612 49.2035 39.5737 51.9239 33.906 52.7465C27.4679 53.6808 21.6564 52.0266 16.6285 47.8847C12.4676 44.4571 9.97318 40.0228 9.00797 34.7323C8.90183 34.1508 8.86674 33.5554 8.81749 32.9648C8.78326 32.5542 8.63821 32.3559 8.17008 32.3733C7.16756 32.4104 6.16283 32.3846 5 32.3846" fill="#F26100"/>
<path fill-rule="evenodd" clip-rule="evenodd" d="M32.7829 25.4849C32.7832 27.6228 32.7724 29.7607 32.7894 31.8985C32.795 32.6141 32.5576 33.1956 32.0257 33.7014C29.7024 35.9116 27.3994 38.1416 25.073 40.3489C23.9595 41.4055 22.3083 41.0372 21.7869 39.6307C21.486 38.819 21.816 38.1625 22.4111 37.5924C24.3807 35.7059 26.3455 33.8145 28.3277 31.9398C28.6404 31.6441 28.7665 31.3424 28.7649 30.9225C28.7503 27.0946 28.7385 23.2666 28.7752 19.4391C28.7809 18.8526 28.929 18.2151 29.2058 17.6963C29.5743 17.0057 30.59 16.7256 31.3204 16.9491C32.1541 17.204 32.7762 17.9839 32.7795 18.8269C32.7881 21.0463 32.7825 23.2656 32.7829 25.4849" fill="#F26100"/>
<path fill-rule="evenodd" clip-rule="evenodd" d="M28.6273 43.7014C28.6273 43.4344 28.6112 43.1669 28.6307 42.9007C28.6695 42.373 29.2419 41.9308 29.9192 41.8881C30.6284 41.8431 31.2851 42.1905 31.3502 42.7585C31.4261 43.4201 31.4081 44.0924 31.3441 44.7558C31.2987 45.2241 30.6088 45.5979 29.9782 45.5893C29.3737 45.581 28.7133 45.1369 28.646 44.6515C28.6024 44.3377 28.6378 44.0183 28.6378 43.7014H28.6273Z" fill="#F26100"/>
<path fill-rule="evenodd" clip-rule="evenodd" d="M44.3871 31.2279C44.1009 31.2279 43.8145 31.237 43.5285 31.226C43.0066 31.2057 42.5619 30.6655 42.5199 30.0143C42.4718 29.271 42.849 28.5606 43.4121 28.5012C44.0478 28.4342 44.6924 28.4386 45.3288 28.5005C45.8574 28.5519 46.2631 29.2839 46.2176 29.9533C46.1693 30.6637 45.7353 31.2085 45.1952 31.2264C44.926 31.2354 44.6565 31.2279 44.3871 31.2279" fill="#F26100"/>
<path fill-rule="evenodd" clip-rule="evenodd" d="M41.1909 19.4372C41.6546 19.8669 41.7238 20.6069 41.3453 21.1167C41.3238 21.1455 41.3014 21.173 41.2775 21.1992C40.8307 21.6907 40.3525 22.1567 39.854 22.5944C39.2664 23.11 38.3338 22.9443 37.997 22.231C37.8178 21.8515 37.8438 21.407 38.1352 21.0664C38.6531 20.4607 39.1925 19.8536 39.8145 19.3711C40.0798 19.1653 40.635 19.1357 40.9537 19.2756C41.0395 19.3133 41.1175 19.3692 41.1909 19.4372" fill="#F26100"/>
<path fill-rule="evenodd" clip-rule="evenodd" d="M38.3373 38.4694C38.7322 38.1207 39.318 38.0736 39.7341 38.395C39.756 38.4117 39.7768 38.4293 39.7968 38.4478C40.2947 38.9085 40.7659 39.4016 41.2241 39.9048C41.711 40.4395 41.7048 40.9924 41.2443 41.4711C40.7504 41.9841 40.1802 42.0298 39.673 41.5486C39.1664 41.068 38.6825 40.5607 38.2102 40.044C37.8786 39.6811 37.7623 39.2095 38.0398 38.7969C38.1213 38.6755 38.2242 38.5694 38.3373 38.4694" fill="#F26100"/>
</g>
</svg>
