<svg height="60" viewBox="0 0 60 60" width="60" xmlns="http://www.w3.org/2000/svg"><g fill="none" fill-rule="evenodd"><path d="m0 0h60v60h-60z" fill="#fff"/><g fill="#f16322" fill-rule="nonzero" transform="translate(7 8)"><path d="m25.6789639 25.7142857h-5.0510204l8.7627551-6.4859694 2.1045918-3.6734694h-10.7334183l-1.7984694 3.1568878h5.2806122l-9.0688775 6.6007653-2.0471939 3.5395408h10.752551z"/><path d="m42.9748823 13.6607143c-.4799309-.595648-1.1598111-.9967773-1.9132653-1.1288265l1.1096938-2.0280613h-4.3431122l-1.0331633 1.9132653c-1.478664.085226-2.9125068.539057-4.1709183 1.3201531-.2289842.1422225-.4464851.3021496-.6505102.4783163h1.9132653l-1.1862245 2.0471939-2.1045919 3.6352041-.1530612.2487245-.2295918.1721939-1.5688776 1.1670918c.0508573.2036763.1348883.3975942.2487245.5739796.5327485.8229404 1.2803686 1.4845511 2.1619898 1.9132653l.8609694.440051c.3442246.1614071.6766767.3468131.994898.5548469.1603347.1171586.2752416.2861393.3252551.4783164.0523116.3091229.0192346.626662-.0956633.9183673-.1334867.3341119-.2868213.6599479-.4591837.9757653-.2931188.5328427-.6977289.9961865-1.1862245 1.3584184-.5798896.3334653-1.2459583.4866611-1.9132653.440051-.7653061 0-1.0140306-.1530612-1.1096939-.2487245-.0956632-.0956632 0-.6122449 0-.8609694.2788083-.7285467.6179982-1.4325258 1.0140307-2.1045918l.3635204-.6122449h-2.3915817l-.5931122 1.0140306-1.7984694 3.1186225-.4017857.6887755h-1.4540817c.0245002.4188014.1491657.8256043.3635205 1.1862245.5354689.6915108 1.3164525 1.1505099 2.1811224 1.2818877l-1.5688775 2.8890306h4.1517857l1.4540816-2.6594387c1.0943827-.0620834 2.1723877-.2944677 3.1951531-.6887756.8743705-.3455495 1.6687408-.866448 2.3341836-1.5306122.7454699-.8107883 1.3880774-1.7104389 1.9132653-2.6785714.4227794-.6967522.7752765-1.4337916 1.052296-2.2002551.3150995-.8166032.3881686-1.7067179.2104591-2.5637755-.152731-.6394382-.4924215-1.2189101-.9757653-1.6645409-.5133554-.4485322-1.0786094-.8339327-1.6836734-1.1479591l-.7844388-.3826531c-.3927897-.2078214-.7483822-.4793648-1.0522959-.8035714-.1403061-.1658164-.1403061-.4528062 0-.8609694.1103378-.2790172.2447747-.5478909.4017857-.8035714.2409544-.4542145.5972952-.8369509 1.0331633-1.1096939.4686704-.2537826.9984088-.3729737 1.5306122-.3443878.3120931-.04134.6279745.0410639.880102.2295919.114796.1530612 0 .4209183 0 .5931122-.1664306.4504133-.371266.8856886-.6122449 1.3010204l-.3252551.6122449h4.8788266l.1147959-.2104592c.4272213-.6971726.7860336-1.4340192 1.0714286-2.2002551.4268532-.8553137.4268532-1.8615229 0-2.7168367z"/><path d="m14.6011578 15.3061224c-2.5697533-.4529312-5.15756417.6972069-6.54336738 2.9081633l-6.12244898 10.6568878h3.99872449l1.70280613-2.9655613h1.9132653l-1.70280612 2.9655613h3.97959186l5.7397959-9.7959184c.8418367-1.7219388-.057398-3.3482143-2.9655612-3.7691327zm-1.5688776 4.5153062-1.5880102 2.7933673h-1.91326529l1.74107139-3.0612245c.2720911-.4928662.8200034-.7668223 1.3775511-.6887755.5548469.1147959.7461734.4209184.382653 1.0140306z"/><path d="m41.7121272 20.1466837c.0769185.6796805.1152453 1.3631749.1147959 2.0471939-.00746 8.6182134-5.888815 16.1214976-14.2558062 18.1871977-8.3669911 2.0657-17.0646351-1.8382212-21.08220403-9.462708h-3.82653061c4.15432262 9.6860373 14.54322154 15.1193857 24.86852334 13.0061282 10.3253017-2.1132574 17.7441879-11.1912872 17.7590277-21.7306179 0-.6840043-.0384018-1.3674692-.1147959-2.0471939z"/><path d="m4.32692308 22.1938776c.02105114-10.3466069 8.40339312-18.7289489 18.75000002-18.75000005 4.6323086-.01145871 9.1017886 1.70809695 12.5318877 4.82142857h4.744898c-5.90626-7.32460392-15.7893157-10.12882871-24.6622935-6.9976955-8.87297777 3.13113321-14.80721677 11.51703058-14.80836977 20.92626698-.00997468.1592827-.00997468.3190335 0 .4783163h3.44387755c.01913265-.1530612 0-.3061225 0-.4783163z"/><path d="m23.0769231 5.58673469c-5.898912.00262642-11.3537175 3.1342237-14.33035717 8.22704081h1.91326527c2.3416899-3.4777912 6.0336095-5.81513689 10.1788275-6.44419191 4.1452181-.62905502 8.3643558.50775303 11.632397 3.13424291h2.3915817c-3.1149677-3.14615796-7.358375-4.91654055-11.7857143-4.91709181z"/><path d="m23.0769231 37.1938776h-.4783163c-4.6723533-.1551411-9.0068238-2.474401-11.7283164-6.2755103h-1.91326528c3.02307418 4.8963992 8.36544858 7.8788629 14.11989798 7.8826964 2.4630456.0056135 4.8957206-.5437002 7.1173469-1.6071861z"/></g></g></svg>